# Tiled2Unity generated file. Do not modify by hand.
# Wavefront file for 'School_Front_mesh_0001.obj'

# Vertices (Count = 272)
v 0 -48 0
v -48 -48 0
v -48 0 0
v 0 0 0
v -48 -48 0
v -96 -48 0
v -96 0 0
v -48 0 0
v -96 -48 0
v -144 -48 0
v -144 0 0
v -96 0 0
v -144 -48 0
v -192 -48 0
v -192 0 0
v -144 0 0
v -192 -48 0
v -240 -48 0
v -240 0 0
v -192 0 0
v -240 -48 0
v -288 -48 0
v -288 0 0
v -240 0 0
v -288 -48 0
v -336 -48 0
v -336 0 0
v -288 0 0
v -336 -48 0
v -384 -48 0
v -384 0 0
v -336 0 0
v -384 -48 0
v -432 -48 0
v -432 0 0
v -384 0 0
v -432 -48 0
v -480 -48 0
v -480 0 0
v -432 0 0
v -480 -48 0
v -528 -48 0
v -528 0 0
v -480 0 0
v -528 -48 0
v -576 -48 0
v -576 0 0
v -528 0 0
v -576 -48 0
v -624 -48 0
v -624 0 0
v -576 0 0
v -624 -48 0
v -672 -48 0
v -672 0 0
v -624 0 0
v -672 -48 0
v -720 -48 0
v -720 0 0
v -672 0 0
v -720 -48 0
v -768 -48 0
v -768 0 0
v -720 0 0
v -768 -48 0
v -816 -48 0
v -816 0 0
v -768 0 0
v 0 -96 0
v -48 -96 0
v -48 -48 0
v 0 -48 0
v -48 -96 0
v -96 -96 0
v -96 -48 0
v -48 -48 0
v -96 -96 0
v -144 -96 0
v -144 -48 0
v -96 -48 0
v -144 -96 0
v -192 -96 0
v -192 -48 0
v -144 -48 0
v -192 -96 0
v -240 -96 0
v -240 -48 0
v -192 -48 0
v -240 -96 0
v -288 -96 0
v -288 -48 0
v -240 -48 0
v -288 -96 0
v -336 -96 0
v -336 -48 0
v -288 -48 0
v -336 -96 0
v -384 -96 0
v -384 -48 0
v -336 -48 0
v -384 -96 0
v -432 -96 0
v -432 -48 0
v -384 -48 0
v -432 -96 0
v -480 -96 0
v -480 -48 0
v -432 -48 0
v -480 -96 0
v -528 -96 0
v -528 -48 0
v -480 -48 0
v -528 -96 0
v -576 -96 0
v -576 -48 0
v -528 -48 0
v -576 -96 0
v -624 -96 0
v -624 -48 0
v -576 -48 0
v -624 -96 0
v -672 -96 0
v -672 -48 0
v -624 -48 0
v -672 -96 0
v -720 -96 0
v -720 -48 0
v -672 -48 0
v -720 -96 0
v -768 -96 0
v -768 -48 0
v -720 -48 0
v -768 -96 0
v -816 -96 0
v -816 -48 0
v -768 -48 0
v 0 -144 0
v -48 -144 0
v -48 -96 0
v 0 -96 0
v -48 -144 0
v -96 -144 0
v -96 -96 0
v -48 -96 0
v -96 -144 0
v -144 -144 0
v -144 -96 0
v -96 -96 0
v -144 -144 0
v -192 -144 0
v -192 -96 0
v -144 -96 0
v -192 -144 0
v -240 -144 0
v -240 -96 0
v -192 -96 0
v -240 -144 0
v -288 -144 0
v -288 -96 0
v -240 -96 0
v -288 -144 0
v -336 -144 0
v -336 -96 0
v -288 -96 0
v -336 -144 0
v -384 -144 0
v -384 -96 0
v -336 -96 0
v -384 -144 0
v -432 -144 0
v -432 -96 0
v -384 -96 0
v -432 -144 0
v -480 -144 0
v -480 -96 0
v -432 -96 0
v -480 -144 0
v -528 -144 0
v -528 -96 0
v -480 -96 0
v -528 -144 0
v -576 -144 0
v -576 -96 0
v -528 -96 0
v -576 -144 0
v -624 -144 0
v -624 -96 0
v -576 -96 0
v -624 -144 0
v -672 -144 0
v -672 -96 0
v -624 -96 0
v -672 -144 0
v -720 -144 0
v -720 -96 0
v -672 -96 0
v -720 -144 0
v -768 -144 0
v -768 -96 0
v -720 -96 0
v -768 -144 0
v -816 -144 0
v -816 -96 0
v -768 -96 0
v 0 -192 0
v -48 -192 0
v -48 -144 0
v 0 -144 0
v -48 -192 0
v -96 -192 0
v -96 -144 0
v -48 -144 0
v -96 -192 0
v -144 -192 0
v -144 -144 0
v -96 -144 0
v -144 -192 0
v -192 -192 0
v -192 -144 0
v -144 -144 0
v -192 -192 0
v -240 -192 0
v -240 -144 0
v -192 -144 0
v -240 -192 0
v -288 -192 0
v -288 -144 0
v -240 -144 0
v -288 -192 0
v -336 -192 0
v -336 -144 0
v -288 -144 0
v -336 -192 0
v -384 -192 0
v -384 -144 0
v -336 -144 0
v -384 -192 0
v -432 -192 0
v -432 -144 0
v -384 -144 0
v -432 -192 0
v -480 -192 0
v -480 -144 0
v -432 -144 0
v -480 -192 0
v -528 -192 0
v -528 -144 0
v -480 -144 0
v -528 -192 0
v -576 -192 0
v -576 -144 0
v -528 -144 0
v -576 -192 0
v -624 -192 0
v -624 -144 0
v -576 -144 0
v -624 -192 0
v -672 -192 0
v -672 -144 0
v -624 -144 0
v -672 -192 0
v -720 -192 0
v -720 -144 0
v -672 -144 0
v -720 -192 0
v -768 -192 0
v -768 -144 0
v -720 -144 0
v -768 -192 0
v -816 -192 0
v -816 -144 0
v -768 -144 0

# Texture cooridinates (Count = 54)
vt 0 0.9375
vt 0.122449 0.9375
vt 0.122449 1
vt 0 1
vt 0.244898 0.9375
vt 0.244898 1
vt 0.3673469 0.9375
vt 0.3673469 1
vt 0 0.6875
vt 0.122449 0.6875
vt 0.122449 0.75
vt 0 0.75
vt 0.244898 0.6875
vt 0.244898 0.75
vt 0.3673469 0.6875
vt 0.3673469 0.75
vt 0.4897959 0.6875
vt 0.4897959 0.75
vt 0.4897959 0.9375
vt 0.4897959 1
vt 0 0.875
vt 0.122449 0.875
vt 0.244898 0.875
vt 0.3673469 0.875
vt 0 0.625
vt 0.122449 0.625
vt 0.6122449 0.625
vt 0.7346939 0.625
vt 0.7346939 0.6875
vt 0.6122449 0.6875
vt 0.8571429 0.625
vt 0.8571429 0.6875
vt 0.3673469 0.625
vt 0.4897959 0.625
vt 0.4897959 0.875
vt 0 0.8125
vt 0.122449 0.8125
vt 0.244898 0.8125
vt 0.3673469 0.8125
vt 0 0.5625
vt 0.122449 0.5625
vt 0.6122449 0.5625
vt 0.7346939 0.5625
vt 0.8571429 0.5625
vt 0.3673469 0.5625
vt 0.4897959 0.5625
vt 0.4897959 0.8125
vt 0 0.5
vt 0.122449 0.5
vt 0.6122449 0.5
vt 0.7346939 0.5
vt 0.8571429 0.5
vt 0.3673469 0.5
vt 0.4897959 0.5

# Normal
vn 0 0 -1

# Mesh description
g School_Front_mesh_0001

# Faces
f 1/1/1 2/2/1 3/3/1 4/4/1
f 5/2/1 6/5/1 7/6/1 8/3/1
f 9/5/1 10/7/1 11/8/1 12/6/1
f 13/1/1 14/2/1 15/3/1 16/4/1
f 17/2/1 18/5/1 19/6/1 20/3/1
f 21/1/1 22/2/1 23/3/1 24/4/1
f 25/1/1 26/2/1 27/3/1 28/4/1
f 29/9/1 30/10/1 31/11/1 32/12/1
f 33/10/1 34/13/1 35/14/1 36/11/1
f 37/13/1 38/15/1 39/16/1 40/14/1
f 41/15/1 42/17/1 43/18/1 44/16/1
f 45/1/1 46/2/1 47/3/1 48/4/1
f 49/1/1 50/2/1 51/3/1 52/4/1
f 53/7/1 54/19/1 55/20/1 56/8/1
f 57/1/1 58/2/1 59/3/1 60/4/1
f 61/2/1 62/5/1 63/6/1 64/3/1
f 65/5/1 66/7/1 67/8/1 68/6/1
f 69/21/1 70/22/1 71/2/1 72/1/1
f 73/22/1 74/23/1 75/5/1 76/2/1
f 77/23/1 78/24/1 79/7/1 80/5/1
f 81/21/1 82/22/1 83/2/1 84/1/1
f 85/22/1 86/23/1 87/5/1 88/2/1
f 89/21/1 90/22/1 91/2/1 92/1/1
f 93/21/1 94/22/1 95/2/1 96/1/1
f 97/25/1 98/26/1 99/10/1 100/9/1
f 101/27/1 102/28/1 103/29/1 104/30/1
f 105/28/1 106/31/1 107/32/1 108/29/1
f 109/33/1 110/34/1 111/17/1 112/15/1
f 113/21/1 114/22/1 115/2/1 116/1/1
f 117/21/1 118/22/1 119/2/1 120/1/1
f 121/24/1 122/35/1 123/19/1 124/7/1
f 125/21/1 126/22/1 127/2/1 128/1/1
f 129/22/1 130/23/1 131/5/1 132/2/1
f 133/23/1 134/24/1 135/7/1 136/5/1
f 137/36/1 138/37/1 139/22/1 140/21/1
f 141/37/1 142/38/1 143/23/1 144/22/1
f 145/38/1 146/39/1 147/24/1 148/23/1
f 149/36/1 150/37/1 151/22/1 152/21/1
f 153/37/1 154/38/1 155/23/1 156/22/1
f 157/36/1 158/37/1 159/22/1 160/21/1
f 161/36/1 162/37/1 163/22/1 164/21/1
f 165/40/1 166/41/1 167/26/1 168/25/1
f 169/42/1 170/43/1 171/28/1 172/27/1
f 173/43/1 174/44/1 175/31/1 176/28/1
f 177/45/1 178/46/1 179/34/1 180/33/1
f 181/36/1 182/37/1 183/22/1 184/21/1
f 185/36/1 186/37/1 187/22/1 188/21/1
f 189/39/1 190/47/1 191/35/1 192/24/1
f 193/36/1 194/37/1 195/22/1 196/21/1
f 197/37/1 198/38/1 199/23/1 200/22/1
f 201/38/1 202/39/1 203/24/1 204/23/1
f 205/12/1 206/11/1 207/37/1 208/36/1
f 209/11/1 210/14/1 211/38/1 212/37/1
f 213/14/1 214/16/1 215/39/1 216/38/1
f 217/12/1 218/11/1 219/37/1 220/36/1
f 221/11/1 222/14/1 223/38/1 224/37/1
f 225/12/1 226/11/1 227/37/1 228/36/1
f 229/12/1 230/11/1 231/37/1 232/36/1
f 233/48/1 234/49/1 235/41/1 236/40/1
f 237/50/1 238/51/1 239/43/1 240/42/1
f 241/51/1 242/52/1 243/44/1 244/43/1
f 245/53/1 246/54/1 247/46/1 248/45/1
f 249/12/1 250/11/1 251/37/1 252/36/1
f 253/12/1 254/11/1 255/37/1 256/36/1
f 257/16/1 258/18/1 259/47/1 260/39/1
f 261/12/1 262/11/1 263/37/1 264/36/1
f 265/11/1 266/14/1 267/38/1 268/37/1
f 269/14/1 270/16/1 271/39/1 272/38/1

