# Tiled2Unity generated file. Do not modify by hand.
# Wavefront file for 'School_front_1foor_mesh_0004.obj'

# Vertices (Count = 176)
v -48 -48 0
v -96 -48 0
v -96 0 0
v -48 0 0
v -96 -48 0
v -144 -48 0
v -144 0 0
v -96 0 0
v -144 -48 0
v -192 -48 0
v -192 0 0
v -144 0 0
v -192 -48 0
v -240 -48 0
v -240 0 0
v -192 0 0
v -624 -48 0
v -672 -48 0
v -672 0 0
v -624 0 0
v -672 -48 0
v -720 -48 0
v -720 0 0
v -672 0 0
v -720 -48 0
v -768 -48 0
v -768 0 0
v -720 0 0
v -768 -48 0
v -816 -48 0
v -816 0 0
v -768 0 0
v -48 -96 0
v -96 -96 0
v -96 -48 0
v -48 -48 0
v -96 -96 0
v -144 -96 0
v -144 -48 0
v -96 -48 0
v -144 -96 0
v -192 -96 0
v -192 -48 0
v -144 -48 0
v -192 -96 0
v -240 -96 0
v -240 -48 0
v -192 -48 0
v -240 -96 0
v -288 -96 0
v -288 -48 0
v -240 -48 0
v -624 -96 0
v -672 -96 0
v -672 -48 0
v -624 -48 0
v -672 -96 0
v -720 -96 0
v -720 -48 0
v -672 -48 0
v -720 -96 0
v -768 -96 0
v -768 -48 0
v -720 -48 0
v -768 -96 0
v -816 -96 0
v -816 -48 0
v -768 -48 0
v 0 -144 0
v -48 -144 0
v -48 -96 0
v 0 -96 0
v -48 -144 0
v -96 -144 0
v -96 -96 0
v -48 -96 0
v -96 -144 0
v -144 -144 0
v -144 -96 0
v -96 -96 0
v -144 -144 0
v -192 -144 0
v -192 -96 0
v -144 -96 0
v -240 -144 0
v -288 -144 0
v -288 -96 0
v -240 -96 0
v -576 -144 0
v -624 -144 0
v -624 -96 0
v -576 -96 0
v -624 -144 0
v -672 -144 0
v -672 -96 0
v -624 -96 0
v -672 -144 0
v -720 -144 0
v -720 -96 0
v -672 -96 0
v -720 -144 0
v -768 -144 0
v -768 -96 0
v -720 -96 0
v 0 -192 0
v -48 -192 0
v -48 -144 0
v 0 -144 0
v -48 -192 0
v -96 -192 0
v -96 -144 0
v -48 -144 0
v -96 -192 0
v -144 -192 0
v -144 -144 0
v -96 -144 0
v -144 -192 0
v -192 -192 0
v -192 -144 0
v -144 -144 0
v -240 -192 0
v -288 -192 0
v -288 -144 0
v -240 -144 0
v -576 -192 0
v -624 -192 0
v -624 -144 0
v -576 -144 0
v -624 -192 0
v -672 -192 0
v -672 -144 0
v -624 -144 0
v -672 -192 0
v -720 -192 0
v -720 -144 0
v -672 -144 0
v -720 -192 0
v -768 -192 0
v -768 -144 0
v -720 -144 0
v -336 -288 0
v -384 -288 0
v -384 -240 0
v -336 -240 0
v -384 -288 0
v -432 -288 0
v -432 -240 0
v -384 -240 0
v -432 -288 0
v -480 -288 0
v -480 -240 0
v -432 -240 0
v -336 -336 0
v -384 -336 0
v -384 -288 0
v -336 -288 0
v -384 -336 0
v -432 -336 0
v -432 -288 0
v -384 -288 0
v -432 -336 0
v -480 -336 0
v -480 -288 0
v -432 -288 0
v -336 -384 0
v -384 -384 0
v -384 -336 0
v -336 -336 0
v -384 -384 0
v -432 -384 0
v -432 -336 0
v -384 -336 0
v -432 -384 0
v -480 -384 0
v -480 -336 0
v -432 -336 0

# Texture cooridinates (Count = 43)
vt 0.25 0.9375
vt 0.3125 0.9375
vt 0.3125 1
vt 0.25 1
vt 0.375 0.9375
vt 0.375 1
vt 0.25 0.875
vt 0.3125 0.875
vt 0.375 0.875
vt 0 0.8125
vt 0.0625 0.8125
vt 0.0625 0.875
vt 0 0.875
vt 0 0.9375
vt 0.0625 0.9375
vt 0.0625 1
vt 0 1
vt 0.125 0.9375
vt 0.125 1
vt 0.1875 0.9375
vt 0.1875 1
vt 0 0.75
vt 0.0625 0.75
vt 0.125 0.875
vt 0.1875 0.875
vt 0 0.6875
vt 0.0625 0.6875
vt 0.3125 0.125
vt 0.375 0.125
vt 0.375 0.1875
vt 0.3125 0.1875
vt 0.4375 0.125
vt 0.4375 0.1875
vt 0.5 0.125
vt 0.5 0.1875
vt 0.3125 0.0625
vt 0.375 0.0625
vt 0.4375 0.0625
vt 0.5 0.0625
vt 0.3125 0
vt 0.375 0
vt 0.4375 0
vt 0.5 0

# Normal
vn 0 0 -1

# Mesh description
g School_front_1foor_mesh_0004

# Faces
f 1/1/1 2/2/1 3/3/1 4/4/1
f 5/2/1 6/5/1 7/6/1 8/3/1
f 9/1/1 10/2/1 11/3/1 12/4/1
f 13/2/1 14/5/1 15/6/1 16/3/1
f 17/1/1 18/2/1 19/3/1 20/4/1
f 21/2/1 22/5/1 23/6/1 24/3/1
f 25/1/1 26/2/1 27/3/1 28/4/1
f 29/2/1 30/5/1 31/6/1 32/3/1
f 33/7/1 34/8/1 35/2/1 36/1/1
f 37/8/1 38/9/1 39/5/1 40/2/1
f 41/7/1 42/8/1 43/2/1 44/1/1
f 45/8/1 46/9/1 47/5/1 48/2/1
f 49/10/1 50/11/1 51/12/1 52/13/1
f 53/7/1 54/8/1 55/2/1 56/1/1
f 57/8/1 58/9/1 59/5/1 60/2/1
f 61/7/1 62/8/1 63/2/1 64/1/1
f 65/8/1 66/9/1 67/5/1 68/2/1
f 69/14/1 70/15/1 71/16/1 72/17/1
f 73/15/1 74/18/1 75/19/1 76/16/1
f 77/18/1 78/20/1 79/21/1 80/19/1
f 81/20/1 82/1/1 83/4/1 84/21/1
f 85/22/1 86/23/1 87/11/1 88/10/1
f 89/14/1 90/15/1 91/16/1 92/17/1
f 93/15/1 94/18/1 95/19/1 96/16/1
f 97/18/1 98/20/1 99/21/1 100/19/1
f 101/20/1 102/1/1 103/4/1 104/21/1
f 105/13/1 106/12/1 107/15/1 108/14/1
f 109/12/1 110/24/1 111/18/1 112/15/1
f 113/24/1 114/25/1 115/20/1 116/18/1
f 117/25/1 118/7/1 119/1/1 120/20/1
f 121/26/1 122/27/1 123/23/1 124/22/1
f 125/13/1 126/12/1 127/15/1 128/14/1
f 129/12/1 130/24/1 131/18/1 132/15/1
f 133/24/1 134/25/1 135/20/1 136/18/1
f 137/25/1 138/7/1 139/1/1 140/20/1
f 141/28/1 142/29/1 143/30/1 144/31/1
f 145/29/1 146/32/1 147/33/1 148/30/1
f 149/32/1 150/34/1 151/35/1 152/33/1
f 153/36/1 154/37/1 155/29/1 156/28/1
f 157/37/1 158/38/1 159/32/1 160/29/1
f 161/38/1 162/39/1 163/34/1 164/32/1
f 165/40/1 166/41/1 167/37/1 168/36/1
f 169/41/1 170/42/1 171/38/1 172/37/1
f 173/42/1 174/43/1 175/39/1 176/38/1

