# Tiled2Unity generated file. Do not modify by hand.
# Wavefront file for 'School_front_1foor_mesh_0002.obj'

# Vertices (Count = 84)
v 0 -480 0
v -48 -480 0
v -48 -432 0
v 0 -432 0
v -48 -480 0
v -96 -480 0
v -96 -432 0
v -48 -432 0
v -96 -480 0
v -144 -480 0
v -144 -432 0
v -96 -432 0
v -144 -480 0
v -192 -480 0
v -192 -432 0
v -144 -432 0
v -192 -480 0
v -240 -480 0
v -240 -432 0
v -192 -432 0
v -240 -480 0
v -288 -480 0
v -288 -432 0
v -240 -432 0
v -528 -480 0
v -576 -480 0
v -576 -432 0
v -528 -432 0
v -576 -480 0
v -624 -480 0
v -624 -432 0
v -576 -432 0
v -624 -480 0
v -672 -480 0
v -672 -432 0
v -624 -432 0
v -672 -480 0
v -720 -480 0
v -720 -432 0
v -672 -432 0
v -720 -480 0
v -768 -480 0
v -768 -432 0
v -720 -432 0
v -768 -480 0
v -816 -480 0
v -816 -432 0
v -768 -432 0
v -240 -528 0
v -288 -528 0
v -288 -480 0
v -240 -480 0
v -528 -528 0
v -576 -528 0
v -576 -480 0
v -528 -480 0
v -240 -576 0
v -288 -576 0
v -288 -528 0
v -240 -528 0
v -288 -576 0
v -336 -576 0
v -336 -528 0
v -288 -528 0
v -336 -576 0
v -384 -576 0
v -384 -528 0
v -336 -528 0
v -384 -576 0
v -432 -576 0
v -432 -528 0
v -384 -528 0
v -432 -576 0
v -480 -576 0
v -480 -528 0
v -432 -528 0
v -480 -576 0
v -528 -576 0
v -528 -528 0
v -480 -528 0
v -528 -576 0
v -576 -576 0
v -576 -528 0
v -528 -528 0

# Texture cooridinates (Count = 16)
vt 0.125 0.8666667
vt 0.1875 0.8666667
vt 0.1875 0.9333333
vt 0.125 0.9333333
vt 0.0625 0.8666667
vt 0.0625 0.9333333
vt 0 0.8666667
vt 0 0.9333333
vt 0.1875 0.8
vt 0.25 0.8
vt 0.25 0.8666667
vt 0.125 0.8
vt 0.1875 1
vt 0.125 1
vt 0.25 0.9333333
vt 0.25 1

# Normal
vn 0 0 -1

# Mesh description
g School_front_1foor_mesh_0002

# Faces
f 1/1/1 2/2/1 3/3/1 4/4/1
f 5/1/1 6/2/1 7/3/1 8/4/1
f 9/1/1 10/2/1 11/3/1 12/4/1
f 13/1/1 14/2/1 15/3/1 16/4/1
f 17/1/1 18/2/1 19/3/1 20/4/1
f 21/5/1 22/1/1 23/4/1 24/6/1
f 25/7/1 26/5/1 27/6/1 28/8/1
f 29/1/1 30/2/1 31/3/1 32/4/1
f 33/1/1 34/2/1 35/3/1 36/4/1
f 37/1/1 38/2/1 39/3/1 40/4/1
f 41/1/1 42/2/1 43/3/1 44/4/1
f 45/1/1 46/2/1 47/3/1 48/4/1
f 49/9/1 50/10/1 51/11/1 52/2/1
f 53/12/1 54/9/1 55/2/1 56/1/1
f 57/4/1 58/3/1 59/13/1 60/14/1
f 61/1/1 62/2/1 63/3/1 64/4/1
f 65/1/1 66/2/1 67/3/1 68/4/1
f 69/1/1 70/2/1 71/3/1 72/4/1
f 73/1/1 74/2/1 75/3/1 76/4/1
f 77/1/1 78/2/1 79/3/1 80/4/1
f 81/3/1 82/15/1 83/16/1 84/13/1

