# Tiled2Unity generated file. Do not modify by hand.
# Wavefront file for 'School_mesh_0003.obj'

# Vertices (Count = 152)
v -144 -288 0
v -192 -288 0
v -192 -240 0
v -144 -240 0
v -192 -288 0
v -240 -288 0
v -240 -240 0
v -192 -240 0
v -624 -288 0
v -672 -288 0
v -672 -240 0
v -624 -240 0
v -96 -384 0
v -144 -384 0
v -144 -336 0
v -96 -336 0
v -144 -384 0
v -192 -384 0
v -192 -336 0
v -144 -336 0
v -672 -384 0
v -720 -384 0
v -720 -336 0
v -672 -336 0
v -720 -384 0
v -768 -384 0
v -768 -336 0
v -720 -336 0
v -768 -384 0
v -816 -384 0
v -816 -336 0
v -768 -336 0
v -96 -432 0
v -144 -432 0
v -144 -384 0
v -96 -384 0
v -144 -432 0
v -192 -432 0
v -192 -384 0
v -144 -384 0
v -672 -432 0
v -720 -432 0
v -720 -384 0
v -672 -384 0
v -720 -432 0
v -768 -432 0
v -768 -384 0
v -720 -384 0
v -768 -432 0
v -816 -432 0
v -816 -384 0
v -768 -384 0
v -96 -480 0
v -144 -480 0
v -144 -432 0
v -96 -432 0
v -144 -480 0
v -192 -480 0
v -192 -432 0
v -144 -432 0
v -528 -480 0
v -576 -480 0
v -576 -432 0
v -528 -432 0
v -576 -480 0
v -624 -480 0
v -624 -432 0
v -576 -432 0
v -624 -480 0
v -672 -480 0
v -672 -432 0
v -624 -432 0
v -672 -480 0
v -720 -480 0
v -720 -432 0
v -672 -432 0
v -720 -480 0
v -768 -480 0
v -768 -432 0
v -720 -432 0
v -768 -480 0
v -816 -480 0
v -816 -432 0
v -768 -432 0
v 0 -528 0
v -48 -528 0
v -48 -480 0
v 0 -480 0
v -48 -528 0
v -96 -528 0
v -96 -480 0
v -48 -480 0
v -528 -528 0
v -576 -528 0
v -576 -480 0
v -528 -480 0
v -576 -528 0
v -624 -528 0
v -624 -480 0
v -576 -480 0
v -624 -528 0
v -672 -528 0
v -672 -480 0
v -624 -480 0
v -672 -528 0
v -720 -528 0
v -720 -480 0
v -672 -480 0
v -720 -528 0
v -768 -528 0
v -768 -480 0
v -720 -480 0
v -768 -528 0
v -816 -528 0
v -816 -480 0
v -768 -480 0
v 0 -576 0
v -48 -576 0
v -48 -528 0
v 0 -528 0
v -48 -576 0
v -96 -576 0
v -96 -528 0
v -48 -528 0
v -528 -576 0
v -576 -576 0
v -576 -528 0
v -528 -528 0
v -576 -576 0
v -624 -576 0
v -624 -528 0
v -576 -528 0
v -624 -576 0
v -672 -576 0
v -672 -528 0
v -624 -528 0
v -672 -576 0
v -720 -576 0
v -720 -528 0
v -672 -528 0
v -576 -624 0
v -624 -624 0
v -624 -576 0
v -576 -576 0
v -624 -624 0
v -672 -624 0
v -672 -576 0
v -624 -576 0
v -672 -624 0
v -720 -624 0
v -720 -576 0
v -672 -576 0

# Texture cooridinates (Count = 35)
vt 0.4375 0.625
vt 0.5 0.625
vt 0.5 0.6875
vt 0.4375 0.6875
vt 0.375 0.625
vt 0.375 0.6875
vt 0.375 0.875
vt 0.4375 0.875
vt 0.4375 0.9375
vt 0.375 0.9375
vt 0.5 0.875
vt 0.5 0.9375
vt 0.1875 0.6875
vt 0.25 0.6875
vt 0.25 0.75
vt 0.1875 0.75
vt 0.3125 0.6875
vt 0.3125 0.75
vt 0.375 0.75
vt 0.375 0.8125
vt 0.4375 0.8125
vt 0.5 0.8125
vt 0.1875 0.625
vt 0.25 0.625
vt 0.3125 0.625
vt 0.4375 0.75
vt 0.5 0.75
vt 0.1875 0.5625
vt 0.25 0.5625
vt 0.3125 0.5625
vt 0.375 0.5625
vt 0.1875 0.5
vt 0.25 0.5
vt 0.3125 0.5
vt 0.375 0.5

# Normal
vn 0 0 -1

# Mesh description
g School_mesh_0003

# Faces
f 1/1/1 2/2/1 3/3/1 4/4/1
f 5/1/1 6/2/1 7/3/1 8/4/1
f 9/5/1 10/1/1 11/4/1 12/6/1
f 13/7/1 14/8/1 15/9/1 16/10/1
f 17/8/1 18/11/1 19/12/1 20/9/1
f 21/13/1 22/14/1 23/15/1 24/16/1
f 25/14/1 26/17/1 27/18/1 28/15/1
f 29/17/1 30/6/1 31/19/1 32/18/1
f 33/20/1 34/21/1 35/8/1 36/7/1
f 37/21/1 38/22/1 39/11/1 40/8/1
f 41/23/1 42/24/1 43/14/1 44/13/1
f 45/24/1 46/25/1 47/17/1 48/14/1
f 49/25/1 50/5/1 51/6/1 52/17/1
f 53/19/1 54/26/1 55/21/1 56/20/1
f 57/26/1 58/27/1 59/22/1 60/21/1
f 61/13/1 62/14/1 63/15/1 64/16/1
f 65/14/1 66/17/1 67/18/1 68/15/1
f 69/17/1 70/6/1 71/19/1 72/18/1
f 73/28/1 74/29/1 75/24/1 76/23/1
f 77/29/1 78/30/1 79/25/1 80/24/1
f 81/30/1 82/31/1 83/5/1 84/25/1
f 85/20/1 86/21/1 87/8/1 88/7/1
f 89/21/1 90/22/1 91/11/1 92/8/1
f 93/23/1 94/24/1 95/14/1 96/13/1
f 97/24/1 98/25/1 99/17/1 100/14/1
f 101/25/1 102/5/1 103/6/1 104/17/1
f 105/32/1 106/33/1 107/29/1 108/28/1
f 109/33/1 110/34/1 111/30/1 112/29/1
f 113/34/1 114/35/1 115/31/1 116/30/1
f 117/19/1 118/26/1 119/21/1 120/20/1
f 121/26/1 122/27/1 123/22/1 124/21/1
f 125/28/1 126/29/1 127/24/1 128/23/1
f 129/29/1 130/30/1 131/25/1 132/24/1
f 133/30/1 134/31/1 135/5/1 136/25/1
f 137/1/1 138/2/1 139/3/1 140/4/1
f 141/33/1 142/34/1 143/30/1 144/29/1
f 145/34/1 146/35/1 147/31/1 148/30/1
f 149/1/1 150/2/1 151/3/1 152/4/1

