# Tiled2Unity generated file. Do not modify by hand.
# Wavefront file for 'School_mesh_0001.obj'

# Vertices (Count = 304)
v 0 -48 0
v -48 -48 0
v -48 0 0
v 0 0 0
v -48 -48 0
v -96 -48 0
v -96 0 0
v -48 0 0
v -96 -48 0
v -144 -48 0
v -144 0 0
v -96 0 0
v -144 -48 0
v -192 -48 0
v -192 0 0
v -144 0 0
v -192 -48 0
v -240 -48 0
v -240 0 0
v -192 0 0
v -240 -48 0
v -288 -48 0
v -288 0 0
v -240 0 0
v -288 -48 0
v -336 -48 0
v -336 0 0
v -288 0 0
v -336 -48 0
v -384 -48 0
v -384 0 0
v -336 0 0
v -384 -48 0
v -432 -48 0
v -432 0 0
v -384 0 0
v -432 -48 0
v -480 -48 0
v -480 0 0
v -432 0 0
v -480 -48 0
v -528 -48 0
v -528 0 0
v -480 0 0
v -528 -48 0
v -576 -48 0
v -576 0 0
v -528 0 0
v -576 -48 0
v -624 -48 0
v -624 0 0
v -576 0 0
v -624 -48 0
v -672 -48 0
v -672 0 0
v -624 0 0
v -672 -48 0
v -720 -48 0
v -720 0 0
v -672 0 0
v -720 -48 0
v -768 -48 0
v -768 0 0
v -720 0 0
v -768 -48 0
v -816 -48 0
v -816 0 0
v -768 0 0
v 0 -96 0
v -48 -96 0
v -48 -48 0
v 0 -48 0
v -48 -96 0
v -96 -96 0
v -96 -48 0
v -48 -48 0
v -96 -96 0
v -144 -96 0
v -144 -48 0
v -96 -48 0
v -144 -96 0
v -192 -96 0
v -192 -48 0
v -144 -48 0
v -192 -96 0
v -240 -96 0
v -240 -48 0
v -192 -48 0
v -240 -96 0
v -288 -96 0
v -288 -48 0
v -240 -48 0
v -288 -96 0
v -336 -96 0
v -336 -48 0
v -288 -48 0
v -336 -96 0
v -384 -96 0
v -384 -48 0
v -336 -48 0
v -384 -96 0
v -432 -96 0
v -432 -48 0
v -384 -48 0
v -432 -96 0
v -480 -96 0
v -480 -48 0
v -432 -48 0
v -480 -96 0
v -528 -96 0
v -528 -48 0
v -480 -48 0
v -528 -96 0
v -576 -96 0
v -576 -48 0
v -528 -48 0
v -576 -96 0
v -624 -96 0
v -624 -48 0
v -576 -48 0
v -624 -96 0
v -672 -96 0
v -672 -48 0
v -624 -48 0
v -672 -96 0
v -720 -96 0
v -720 -48 0
v -672 -48 0
v -720 -96 0
v -768 -96 0
v -768 -48 0
v -720 -48 0
v -768 -96 0
v -816 -96 0
v -816 -48 0
v -768 -48 0
v 0 -144 0
v -48 -144 0
v -48 -96 0
v 0 -96 0
v -48 -144 0
v -96 -144 0
v -96 -96 0
v -48 -96 0
v -96 -144 0
v -144 -144 0
v -144 -96 0
v -96 -96 0
v -144 -144 0
v -192 -144 0
v -192 -96 0
v -144 -96 0
v -192 -144 0
v -240 -144 0
v -240 -96 0
v -192 -96 0
v -240 -144 0
v -288 -144 0
v -288 -96 0
v -240 -96 0
v -288 -144 0
v -336 -144 0
v -336 -96 0
v -288 -96 0
v -336 -144 0
v -384 -144 0
v -384 -96 0
v -336 -96 0
v -384 -144 0
v -432 -144 0
v -432 -96 0
v -384 -96 0
v -432 -144 0
v -480 -144 0
v -480 -96 0
v -432 -96 0
v -480 -144 0
v -528 -144 0
v -528 -96 0
v -480 -96 0
v -528 -144 0
v -576 -144 0
v -576 -96 0
v -528 -96 0
v -576 -144 0
v -624 -144 0
v -624 -96 0
v -576 -96 0
v -624 -144 0
v -672 -144 0
v -672 -96 0
v -624 -96 0
v -672 -144 0
v -720 -144 0
v -720 -96 0
v -672 -96 0
v -720 -144 0
v -768 -144 0
v -768 -96 0
v -720 -96 0
v -768 -144 0
v -816 -144 0
v -816 -96 0
v -768 -96 0
v 0 -192 0
v -48 -192 0
v -48 -144 0
v 0 -144 0
v -48 -192 0
v -96 -192 0
v -96 -144 0
v -48 -144 0
v -96 -192 0
v -144 -192 0
v -144 -144 0
v -96 -144 0
v -144 -192 0
v -192 -192 0
v -192 -144 0
v -144 -144 0
v -192 -192 0
v -240 -192 0
v -240 -144 0
v -192 -144 0
v -240 -192 0
v -288 -192 0
v -288 -144 0
v -240 -144 0
v -288 -192 0
v -336 -192 0
v -336 -144 0
v -288 -144 0
v -336 -192 0
v -384 -192 0
v -384 -144 0
v -336 -144 0
v -384 -192 0
v -432 -192 0
v -432 -144 0
v -384 -144 0
v -432 -192 0
v -480 -192 0
v -480 -144 0
v -432 -144 0
v -480 -192 0
v -528 -192 0
v -528 -144 0
v -480 -144 0
v -528 -192 0
v -576 -192 0
v -576 -144 0
v -528 -144 0
v -576 -192 0
v -624 -192 0
v -624 -144 0
v -576 -144 0
v -624 -192 0
v -672 -192 0
v -672 -144 0
v -624 -144 0
v -672 -192 0
v -720 -192 0
v -720 -144 0
v -672 -144 0
v -720 -192 0
v -768 -192 0
v -768 -144 0
v -720 -144 0
v -768 -192 0
v -816 -192 0
v -816 -144 0
v -768 -144 0
v -336 -240 0
v -384 -240 0
v -384 -192 0
v -336 -192 0
v -384 -240 0
v -432 -240 0
v -432 -192 0
v -384 -192 0
v -432 -240 0
v -480 -240 0
v -480 -192 0
v -432 -192 0
v -480 -240 0
v -528 -240 0
v -528 -192 0
v -480 -192 0
v -336 -288 0
v -384 -288 0
v -384 -240 0
v -336 -240 0
v -384 -288 0
v -432 -288 0
v -432 -240 0
v -384 -240 0
v -432 -288 0
v -480 -288 0
v -480 -240 0
v -432 -240 0
v -480 -288 0
v -528 -288 0
v -528 -240 0
v -480 -240 0

# Texture cooridinates (Count = 53)
vt 0 0.9375
vt 0.122449 0.9375
vt 0.122449 1
vt 0 1
vt 0.244898 0.9375
vt 0.244898 1
vt 0.3673469 0.9375
vt 0.3673469 1
vt 0.4897959 0.9375
vt 0.4897959 1
vt 0.3673469 0.875
vt 0.4897959 0.875
vt 0 0.875
vt 0.122449 0.875
vt 0.244898 0.875
vt 0 0.625
vt 0.122449 0.625
vt 0.122449 0.6875
vt 0 0.6875
vt 0.244898 0.625
vt 0.244898 0.6875
vt 0.3673469 0.625
vt 0.3673469 0.6875
vt 0.4897959 0.625
vt 0.4897959 0.6875
vt 0 0.8125
vt 0.122449 0.8125
vt 0.244898 0.8125
vt 0.3673469 0.8125
vt 0.4897959 0.8125
vt 0.6122449 0.6875
vt 0.6122449 0.75
vt 0.4897959 0.75
vt 0.7346939 0.6875
vt 0.7346939 0.75
vt 0.8571429 0.6875
vt 0.8571429 0.75
vt 0.9795918 0.6875
vt 0.9795918 0.75
vt 0 0.75
vt 0.122449 0.75
vt 0.244898 0.75
vt 0.3673469 0.75
vt 0 0.5625
vt 0.122449 0.5625
vt 0.244898 0.5625
vt 0.3673469 0.5625
vt 0.4897959 0.5625
vt 0 0.5
vt 0.122449 0.5
vt 0.244898 0.5
vt 0.3673469 0.5
vt 0.4897959 0.5

# Normal
vn 0 0 -1

# Mesh description
g School_mesh_0001

# Faces
f 1/1/1 2/2/1 3/3/1 4/4/1
f 5/2/1 6/5/1 7/6/1 8/3/1
f 9/1/1 10/2/1 11/3/1 12/4/1
f 13/2/1 14/5/1 15/6/1 16/3/1
f 17/5/1 18/7/1 19/8/1 20/6/1
f 21/7/1 22/9/1 23/10/1 24/8/1
f 25/11/1 26/12/1 27/9/1 28/7/1
f 29/2/1 30/5/1 31/6/1 32/3/1
f 33/5/1 34/7/1 35/8/1 36/6/1
f 37/7/1 38/9/1 39/10/1 40/8/1
f 41/1/1 42/2/1 43/3/1 44/4/1
f 45/2/1 46/5/1 47/6/1 48/3/1
f 49/5/1 50/7/1 51/8/1 52/6/1
f 53/1/1 54/2/1 55/3/1 56/4/1
f 57/2/1 58/5/1 59/6/1 60/3/1
f 61/5/1 62/7/1 63/8/1 64/6/1
f 65/7/1 66/9/1 67/10/1 68/8/1
f 69/13/1 70/14/1 71/2/1 72/1/1
f 73/14/1 74/15/1 75/5/1 76/2/1
f 77/13/1 78/14/1 79/2/1 80/1/1
f 81/14/1 82/15/1 83/5/1 84/2/1
f 85/15/1 86/11/1 87/7/1 88/5/1
f 89/11/1 90/12/1 91/9/1 92/7/1
f 93/11/1 94/12/1 95/9/1 96/7/1
f 97/16/1 98/17/1 99/18/1 100/19/1
f 101/17/1 102/20/1 103/21/1 104/18/1
f 105/20/1 106/22/1 107/23/1 108/21/1
f 109/22/1 110/24/1 111/25/1 112/23/1
f 113/14/1 114/15/1 115/5/1 116/2/1
f 117/15/1 118/11/1 119/7/1 120/5/1
f 121/13/1 122/14/1 123/2/1 124/1/1
f 125/14/1 126/15/1 127/5/1 128/2/1
f 129/15/1 130/11/1 131/7/1 132/5/1
f 133/11/1 134/12/1 135/9/1 136/7/1
f 137/26/1 138/27/1 139/14/1 140/13/1
f 141/27/1 142/28/1 143/15/1 144/14/1
f 145/26/1 146/27/1 147/14/1 148/13/1
f 149/27/1 150/28/1 151/15/1 152/14/1
f 153/28/1 154/29/1 155/11/1 156/15/1
f 157/29/1 158/30/1 159/12/1 160/11/1
f 161/11/1 162/12/1 163/9/1 164/7/1
f 165/25/1 166/31/1 167/32/1 168/33/1
f 169/31/1 170/34/1 171/35/1 172/32/1
f 173/34/1 174/36/1 175/37/1 176/35/1
f 177/36/1 178/38/1 179/39/1 180/37/1
f 181/27/1 182/28/1 183/15/1 184/14/1
f 185/28/1 186/29/1 187/11/1 188/15/1
f 189/26/1 190/27/1 191/14/1 192/13/1
f 193/27/1 194/28/1 195/15/1 196/14/1
f 197/28/1 198/29/1 199/11/1 200/15/1
f 201/29/1 202/30/1 203/12/1 204/11/1
f 205/40/1 206/41/1 207/27/1 208/26/1
f 209/41/1 210/42/1 211/28/1 212/27/1
f 213/42/1 214/43/1 215/29/1 216/28/1
f 217/43/1 218/33/1 219/30/1 220/29/1
f 221/43/1 222/33/1 223/30/1 224/29/1
f 225/43/1 226/33/1 227/30/1 228/29/1
f 229/43/1 230/33/1 231/30/1 232/29/1
f 233/16/1 234/17/1 235/18/1 236/19/1
f 237/17/1 238/20/1 239/21/1 240/18/1
f 241/20/1 242/22/1 243/23/1 244/21/1
f 245/22/1 246/24/1 247/25/1 248/23/1
f 249/40/1 250/41/1 251/27/1 252/26/1
f 253/41/1 254/42/1 255/28/1 256/27/1
f 257/40/1 258/41/1 259/27/1 260/26/1
f 261/41/1 262/42/1 263/28/1 264/27/1
f 265/42/1 266/43/1 267/29/1 268/28/1
f 269/43/1 270/33/1 271/30/1 272/29/1
f 273/44/1 274/45/1 275/17/1 276/16/1
f 277/45/1 278/46/1 279/20/1 280/17/1
f 281/46/1 282/47/1 283/22/1 284/20/1
f 285/47/1 286/48/1 287/24/1 288/22/1
f 289/49/1 290/50/1 291/45/1 292/44/1
f 293/50/1 294/51/1 295/46/1 296/45/1
f 297/51/1 298/52/1 299/47/1 300/46/1
f 301/52/1 302/53/1 303/48/1 304/47/1

