# Tiled2Unity generated file. Do not modify by hand.
# Wavefront file for 'Test-A_mesh_0004.obj'

# Vertices (Count = 280)
v -720 -96 0
v -768 -96 0
v -768 -48 0
v -720 -48 0
v -768 -96 0
v -816 -96 0
v -816 -48 0
v -768 -48 0
v -720 -144 0
v -768 -144 0
v -768 -96 0
v -720 -96 0
v -768 -144 0
v -816 -144 0
v -816 -96 0
v -768 -96 0
v -48 -192 0
v -96 -192 0
v -96 -144 0
v -48 -144 0
v -96 -192 0
v -144 -192 0
v -144 -144 0
v -96 -144 0
v -144 -192 0
v -192 -192 0
v -192 -144 0
v -144 -144 0
v -624 -192 0
v -672 -192 0
v -672 -144 0
v -624 -144 0
v -672 -192 0
v -720 -192 0
v -720 -144 0
v -672 -144 0
v -720 -192 0
v -768 -192 0
v -768 -144 0
v -720 -144 0
v -768 -192 0
v -816 -192 0
v -816 -144 0
v -768 -144 0
v -48 -240 0
v -96 -240 0
v -96 -192 0
v -48 -192 0
v -96 -240 0
v -144 -240 0
v -144 -192 0
v -96 -192 0
v -144 -240 0
v -192 -240 0
v -192 -192 0
v -144 -192 0
v -624 -240 0
v -672 -240 0
v -672 -192 0
v -624 -192 0
v -672 -240 0
v -720 -240 0
v -720 -192 0
v -672 -192 0
v -720 -240 0
v -768 -240 0
v -768 -192 0
v -720 -192 0
v -768 -240 0
v -816 -240 0
v -816 -192 0
v -768 -192 0
v -48 -288 0
v -96 -288 0
v -96 -240 0
v -48 -240 0
v -96 -288 0
v -144 -288 0
v -144 -240 0
v -96 -240 0
v -144 -288 0
v -192 -288 0
v -192 -240 0
v -144 -240 0
v -624 -288 0
v -672 -288 0
v -672 -240 0
v -624 -240 0
v -672 -288 0
v -720 -288 0
v -720 -240 0
v -672 -240 0
v -720 -288 0
v -768 -288 0
v -768 -240 0
v -720 -240 0
v -48 -336 0
v -96 -336 0
v -96 -288 0
v -48 -288 0
v -96 -336 0
v -144 -336 0
v -144 -288 0
v -96 -288 0
v -144 -336 0
v -192 -336 0
v -192 -288 0
v -144 -288 0
v -480 -336 0
v -528 -336 0
v -528 -288 0
v -480 -288 0
v -528 -336 0
v -576 -336 0
v -576 -288 0
v -528 -288 0
v -576 -336 0
v -624 -336 0
v -624 -288 0
v -576 -288 0
v -624 -336 0
v -672 -336 0
v -672 -288 0
v -624 -288 0
v -672 -336 0
v -720 -336 0
v -720 -288 0
v -672 -288 0
v -720 -336 0
v -768 -336 0
v -768 -288 0
v -720 -288 0
v -192 -384 0
v -240 -384 0
v -240 -336 0
v -192 -336 0
v -240 -384 0
v -288 -384 0
v -288 -336 0
v -240 -336 0
v -480 -384 0
v -528 -384 0
v -528 -336 0
v -480 -336 0
v -528 -384 0
v -576 -384 0
v -576 -336 0
v -528 -336 0
v -576 -384 0
v -624 -384 0
v -624 -336 0
v -576 -336 0
v -192 -432 0
v -240 -432 0
v -240 -384 0
v -192 -384 0
v -240 -432 0
v -288 -432 0
v -288 -384 0
v -240 -384 0
v -480 -432 0
v -528 -432 0
v -528 -384 0
v -480 -384 0
v -528 -432 0
v -576 -432 0
v -576 -384 0
v -528 -384 0
v -576 -432 0
v -624 -432 0
v -624 -384 0
v -576 -384 0
v 0 -480 0
v -48 -480 0
v -48 -432 0
v 0 -432 0
v -48 -480 0
v -96 -480 0
v -96 -432 0
v -48 -432 0
v -192 -480 0
v -240 -480 0
v -240 -432 0
v -192 -432 0
v -240 -480 0
v -288 -480 0
v -288 -432 0
v -240 -432 0
v -480 -480 0
v -528 -480 0
v -528 -432 0
v -480 -432 0
v -528 -480 0
v -576 -480 0
v -576 -432 0
v -528 -432 0
v -576 -480 0
v -624 -480 0
v -624 -432 0
v -576 -432 0
v 0 -528 0
v -48 -528 0
v -48 -480 0
v 0 -480 0
v -48 -528 0
v -96 -528 0
v -96 -480 0
v -48 -480 0
v -192 -528 0
v -240 -528 0
v -240 -480 0
v -192 -480 0
v -240 -528 0
v -288 -528 0
v -288 -480 0
v -240 -480 0
v 0 -576 0
v -48 -576 0
v -48 -528 0
v 0 -528 0
v -48 -576 0
v -96 -576 0
v -96 -528 0
v -48 -528 0
v -96 -576 0
v -144 -576 0
v -144 -528 0
v -96 -528 0
v -144 -576 0
v -192 -576 0
v -192 -528 0
v -144 -528 0
v -192 -576 0
v -240 -576 0
v -240 -528 0
v -192 -528 0
v -672 -576 0
v -720 -576 0
v -720 -528 0
v -672 -528 0
v -720 -576 0
v -768 -576 0
v -768 -528 0
v -720 -528 0
v -768 -576 0
v -816 -576 0
v -816 -528 0
v -768 -528 0
v 0 -624 0
v -48 -624 0
v -48 -576 0
v 0 -576 0
v -48 -624 0
v -96 -624 0
v -96 -576 0
v -48 -576 0
v -96 -624 0
v -144 -624 0
v -144 -576 0
v -96 -576 0
v -144 -624 0
v -192 -624 0
v -192 -576 0
v -144 -576 0
v -192 -624 0
v -240 -624 0
v -240 -576 0
v -192 -576 0
v -672 -624 0
v -720 -624 0
v -720 -576 0
v -672 -576 0
v -720 -624 0
v -768 -624 0
v -768 -576 0
v -720 -576 0
v -768 -624 0
v -816 -624 0
v -816 -576 0
v -768 -576 0

# Texture cooridinates (Count = 58)
vt 0.375 0.6875
vt 0.4375 0.6875
vt 0.4375 0.75
vt 0.375 0.75
vt 0.5 0.6875
vt 0.5 0.75
vt 0.375 0.625
vt 0.4375 0.625
vt 0.5 0.625
vt 0 0.4375
vt 0.0625 0.4375
vt 0.0625 0.5
vt 0 0.5
vt 0.125 0.4375
vt 0.125 0.5
vt 0.1875 0.4375
vt 0.1875 0.5
vt 0.375 0.5625
vt 0.4375 0.5625
vt 0.5 0.5625
vt 0 0.375
vt 0.0625 0.375
vt 0.125 0.375
vt 0.1875 0.375
vt 0.375 0.5
vt 0.4375 0.5
vt 0.5 0.5
vt 0 0.3125
vt 0.0625 0.3125
vt 0.125 0.3125
vt 0.1875 0.3125
vt 0 0.25
vt 0.0625 0.25
vt 0.125 0.25
vt 0.1875 0.25
vt 0.25 0.4375
vt 0.25 0.5
vt 0.3125 0.4375
vt 0.3125 0.5
vt 0.375 0.4375
vt 0.25 0.375
vt 0.3125 0.375
vt 0.375 0.375
vt 0.25 0.3125
vt 0.3125 0.3125
vt 0.375 0.3125
vt 0.25 0.25
vt 0.3125 0.25
vt 0.375 0.25
vt 0.1875 0.6875
vt 0.25 0.6875
vt 0.25 0.75
vt 0.1875 0.75
vt 0.3125 0.6875
vt 0.3125 0.75
vt 0.1875 0.625
vt 0.25 0.625
vt 0.3125 0.625

# Normal
vn 0 0 -1

# Mesh description
g Test-A_mesh_0004

# Faces
f 1/1/1 2/2/1 3/3/1 4/4/1
f 5/2/1 6/5/1 7/6/1 8/3/1
f 9/7/1 10/8/1 11/2/1 12/1/1
f 13/8/1 14/9/1 15/5/1 16/2/1
f 17/10/1 18/11/1 19/12/1 20/13/1
f 21/11/1 22/14/1 23/15/1 24/12/1
f 25/14/1 26/16/1 27/17/1 28/15/1
f 29/10/1 30/11/1 31/12/1 32/13/1
f 33/11/1 34/14/1 35/15/1 36/12/1
f 37/18/1 38/19/1 39/8/1 40/7/1
f 41/19/1 42/20/1 43/9/1 44/8/1
f 45/21/1 46/22/1 47/11/1 48/10/1
f 49/22/1 50/23/1 51/14/1 52/11/1
f 53/23/1 54/24/1 55/16/1 56/14/1
f 57/21/1 58/22/1 59/11/1 60/10/1
f 61/22/1 62/23/1 63/14/1 64/11/1
f 65/25/1 66/26/1 67/19/1 68/18/1
f 69/26/1 70/27/1 71/20/1 72/19/1
f 73/28/1 74/29/1 75/22/1 76/21/1
f 77/29/1 78/30/1 79/23/1 80/22/1
f 81/30/1 82/31/1 83/24/1 84/23/1
f 85/28/1 86/29/1 87/22/1 88/21/1
f 89/29/1 90/30/1 91/23/1 92/22/1
f 93/30/1 94/31/1 95/24/1 96/23/1
f 97/32/1 98/33/1 99/29/1 100/28/1
f 101/33/1 102/34/1 103/30/1 104/29/1
f 105/34/1 106/35/1 107/31/1 108/30/1
f 109/16/1 110/36/1 111/37/1 112/17/1
f 113/36/1 114/38/1 115/39/1 116/37/1
f 117/38/1 118/40/1 119/25/1 120/39/1
f 121/32/1 122/33/1 123/29/1 124/28/1
f 125/33/1 126/34/1 127/30/1 128/29/1
f 129/34/1 130/35/1 131/31/1 132/30/1
f 133/1/1 134/2/1 135/3/1 136/4/1
f 137/2/1 138/5/1 139/6/1 140/3/1
f 141/24/1 142/41/1 143/36/1 144/16/1
f 145/41/1 146/42/1 147/38/1 148/36/1
f 149/42/1 150/43/1 151/40/1 152/38/1
f 153/7/1 154/8/1 155/2/1 156/1/1
f 157/8/1 158/9/1 159/5/1 160/2/1
f 161/31/1 162/44/1 163/41/1 164/24/1
f 165/44/1 166/45/1 167/42/1 168/41/1
f 169/45/1 170/46/1 171/43/1 172/42/1
f 173/1/1 174/2/1 175/3/1 176/4/1
f 177/2/1 178/5/1 179/6/1 180/3/1
f 181/18/1 182/19/1 183/8/1 184/7/1
f 185/19/1 186/20/1 187/9/1 188/8/1
f 189/35/1 190/47/1 191/44/1 192/31/1
f 193/47/1 194/48/1 195/45/1 196/44/1
f 197/48/1 198/49/1 199/46/1 200/45/1
f 201/7/1 202/8/1 203/2/1 204/1/1
f 205/8/1 206/9/1 207/5/1 208/2/1
f 209/25/1 210/26/1 211/19/1 212/18/1
f 213/26/1 214/27/1 215/20/1 216/19/1
f 217/18/1 218/19/1 219/8/1 220/7/1
f 221/19/1 222/20/1 223/9/1 224/8/1
f 225/16/1 226/36/1 227/37/1 228/17/1
f 229/36/1 230/38/1 231/39/1 232/37/1
f 233/38/1 234/40/1 235/25/1 236/39/1
f 237/50/1 238/51/1 239/52/1 240/53/1
f 241/51/1 242/54/1 243/55/1 244/52/1
f 245/54/1 246/1/1 247/4/1 248/55/1
f 249/25/1 250/26/1 251/19/1 252/18/1
f 253/26/1 254/27/1 255/20/1 256/19/1
f 257/24/1 258/41/1 259/36/1 260/16/1
f 261/41/1 262/42/1 263/38/1 264/36/1
f 265/42/1 266/43/1 267/40/1 268/38/1
f 269/56/1 270/57/1 271/51/1 272/50/1
f 273/57/1 274/58/1 275/54/1 276/51/1
f 277/58/1 278/7/1 279/1/1 280/54/1

