# Tiled2Unity generated file. Do not modify by hand.
# Wavefront file for 'Test-A_mesh_0001.obj'

# Vertices (Count = 884)
v 0 -48 0
v -48 -48 0
v -48 0 0
v 0 0 0
v -48 -48 0
v -96 -48 0
v -96 0 0
v -48 0 0
v -96 -48 0
v -144 -48 0
v -144 0 0
v -96 0 0
v -144 -48 0
v -192 -48 0
v -192 0 0
v -144 0 0
v -192 -48 0
v -240 -48 0
v -240 0 0
v -192 0 0
v -240 -48 0
v -288 -48 0
v -288 0 0
v -240 0 0
v -288 -48 0
v -336 -48 0
v -336 0 0
v -288 0 0
v -336 -48 0
v -384 -48 0
v -384 0 0
v -336 0 0
v -384 -48 0
v -432 -48 0
v -432 0 0
v -384 0 0
v -432 -48 0
v -480 -48 0
v -480 0 0
v -432 0 0
v -480 -48 0
v -528 -48 0
v -528 0 0
v -480 0 0
v -528 -48 0
v -576 -48 0
v -576 0 0
v -528 0 0
v -576 -48 0
v -624 -48 0
v -624 0 0
v -576 0 0
v -624 -48 0
v -672 -48 0
v -672 0 0
v -624 0 0
v -672 -48 0
v -720 -48 0
v -720 0 0
v -672 0 0
v -720 -48 0
v -768 -48 0
v -768 0 0
v -720 0 0
v -768 -48 0
v -816 -48 0
v -816 0 0
v -768 0 0
v 0 -96 0
v -48 -96 0
v -48 -48 0
v 0 -48 0
v -48 -96 0
v -96 -96 0
v -96 -48 0
v -48 -48 0
v -96 -96 0
v -144 -96 0
v -144 -48 0
v -96 -48 0
v -144 -96 0
v -192 -96 0
v -192 -48 0
v -144 -48 0
v -192 -96 0
v -240 -96 0
v -240 -48 0
v -192 -48 0
v -240 -96 0
v -288 -96 0
v -288 -48 0
v -240 -48 0
v -288 -96 0
v -336 -96 0
v -336 -48 0
v -288 -48 0
v -336 -96 0
v -384 -96 0
v -384 -48 0
v -336 -48 0
v -384 -96 0
v -432 -96 0
v -432 -48 0
v -384 -48 0
v -432 -96 0
v -480 -96 0
v -480 -48 0
v -432 -48 0
v -480 -96 0
v -528 -96 0
v -528 -48 0
v -480 -48 0
v -528 -96 0
v -576 -96 0
v -576 -48 0
v -528 -48 0
v -576 -96 0
v -624 -96 0
v -624 -48 0
v -576 -48 0
v -624 -96 0
v -672 -96 0
v -672 -48 0
v -624 -48 0
v -672 -96 0
v -720 -96 0
v -720 -48 0
v -672 -48 0
v -720 -96 0
v -768 -96 0
v -768 -48 0
v -720 -48 0
v -768 -96 0
v -816 -96 0
v -816 -48 0
v -768 -48 0
v 0 -144 0
v -48 -144 0
v -48 -96 0
v 0 -96 0
v -48 -144 0
v -96 -144 0
v -96 -96 0
v -48 -96 0
v -96 -144 0
v -144 -144 0
v -144 -96 0
v -96 -96 0
v -144 -144 0
v -192 -144 0
v -192 -96 0
v -144 -96 0
v -192 -144 0
v -240 -144 0
v -240 -96 0
v -192 -96 0
v -240 -144 0
v -288 -144 0
v -288 -96 0
v -240 -96 0
v -288 -144 0
v -336 -144 0
v -336 -96 0
v -288 -96 0
v -336 -144 0
v -384 -144 0
v -384 -96 0
v -336 -96 0
v -384 -144 0
v -432 -144 0
v -432 -96 0
v -384 -96 0
v -432 -144 0
v -480 -144 0
v -480 -96 0
v -432 -96 0
v -480 -144 0
v -528 -144 0
v -528 -96 0
v -480 -96 0
v -528 -144 0
v -576 -144 0
v -576 -96 0
v -528 -96 0
v -576 -144 0
v -624 -144 0
v -624 -96 0
v -576 -96 0
v -624 -144 0
v -672 -144 0
v -672 -96 0
v -624 -96 0
v -672 -144 0
v -720 -144 0
v -720 -96 0
v -672 -96 0
v -720 -144 0
v -768 -144 0
v -768 -96 0
v -720 -96 0
v -768 -144 0
v -816 -144 0
v -816 -96 0
v -768 -96 0
v 0 -192 0
v -48 -192 0
v -48 -144 0
v 0 -144 0
v -48 -192 0
v -96 -192 0
v -96 -144 0
v -48 -144 0
v -96 -192 0
v -144 -192 0
v -144 -144 0
v -96 -144 0
v -144 -192 0
v -192 -192 0
v -192 -144 0
v -144 -144 0
v -192 -192 0
v -240 -192 0
v -240 -144 0
v -192 -144 0
v -240 -192 0
v -288 -192 0
v -288 -144 0
v -240 -144 0
v -288 -192 0
v -336 -192 0
v -336 -144 0
v -288 -144 0
v -336 -192 0
v -384 -192 0
v -384 -144 0
v -336 -144 0
v -384 -192 0
v -432 -192 0
v -432 -144 0
v -384 -144 0
v -432 -192 0
v -480 -192 0
v -480 -144 0
v -432 -144 0
v -480 -192 0
v -528 -192 0
v -528 -144 0
v -480 -144 0
v -528 -192 0
v -576 -192 0
v -576 -144 0
v -528 -144 0
v -576 -192 0
v -624 -192 0
v -624 -144 0
v -576 -144 0
v -624 -192 0
v -672 -192 0
v -672 -144 0
v -624 -144 0
v -672 -192 0
v -720 -192 0
v -720 -144 0
v -672 -144 0
v -720 -192 0
v -768 -192 0
v -768 -144 0
v -720 -144 0
v -768 -192 0
v -816 -192 0
v -816 -144 0
v -768 -144 0
v 0 -240 0
v -48 -240 0
v -48 -192 0
v 0 -192 0
v -48 -240 0
v -96 -240 0
v -96 -192 0
v -48 -192 0
v -96 -240 0
v -144 -240 0
v -144 -192 0
v -96 -192 0
v -144 -240 0
v -192 -240 0
v -192 -192 0
v -144 -192 0
v -192 -240 0
v -240 -240 0
v -240 -192 0
v -192 -192 0
v -240 -240 0
v -288 -240 0
v -288 -192 0
v -240 -192 0
v -288 -240 0
v -336 -240 0
v -336 -192 0
v -288 -192 0
v -336 -240 0
v -384 -240 0
v -384 -192 0
v -336 -192 0
v -384 -240 0
v -432 -240 0
v -432 -192 0
v -384 -192 0
v -432 -240 0
v -480 -240 0
v -480 -192 0
v -432 -192 0
v -480 -240 0
v -528 -240 0
v -528 -192 0
v -480 -192 0
v -528 -240 0
v -576 -240 0
v -576 -192 0
v -528 -192 0
v -576 -240 0
v -624 -240 0
v -624 -192 0
v -576 -192 0
v -624 -240 0
v -672 -240 0
v -672 -192 0
v -624 -192 0
v -672 -240 0
v -720 -240 0
v -720 -192 0
v -672 -192 0
v -720 -240 0
v -768 -240 0
v -768 -192 0
v -720 -192 0
v -768 -240 0
v -816 -240 0
v -816 -192 0
v -768 -192 0
v 0 -288 0
v -48 -288 0
v -48 -240 0
v 0 -240 0
v -48 -288 0
v -96 -288 0
v -96 -240 0
v -48 -240 0
v -96 -288 0
v -144 -288 0
v -144 -240 0
v -96 -240 0
v -144 -288 0
v -192 -288 0
v -192 -240 0
v -144 -240 0
v -192 -288 0
v -240 -288 0
v -240 -240 0
v -192 -240 0
v -240 -288 0
v -288 -288 0
v -288 -240 0
v -240 -240 0
v -288 -288 0
v -336 -288 0
v -336 -240 0
v -288 -240 0
v -336 -288 0
v -384 -288 0
v -384 -240 0
v -336 -240 0
v -384 -288 0
v -432 -288 0
v -432 -240 0
v -384 -240 0
v -432 -288 0
v -480 -288 0
v -480 -240 0
v -432 -240 0
v -480 -288 0
v -528 -288 0
v -528 -240 0
v -480 -240 0
v -528 -288 0
v -576 -288 0
v -576 -240 0
v -528 -240 0
v -576 -288 0
v -624 -288 0
v -624 -240 0
v -576 -240 0
v -624 -288 0
v -672 -288 0
v -672 -240 0
v -624 -240 0
v -672 -288 0
v -720 -288 0
v -720 -240 0
v -672 -240 0
v -720 -288 0
v -768 -288 0
v -768 -240 0
v -720 -240 0
v -768 -288 0
v -816 -288 0
v -816 -240 0
v -768 -240 0
v 0 -336 0
v -48 -336 0
v -48 -288 0
v 0 -288 0
v -48 -336 0
v -96 -336 0
v -96 -288 0
v -48 -288 0
v -96 -336 0
v -144 -336 0
v -144 -288 0
v -96 -288 0
v -144 -336 0
v -192 -336 0
v -192 -288 0
v -144 -288 0
v -192 -336 0
v -240 -336 0
v -240 -288 0
v -192 -288 0
v -240 -336 0
v -288 -336 0
v -288 -288 0
v -240 -288 0
v -288 -336 0
v -336 -336 0
v -336 -288 0
v -288 -288 0
v -336 -336 0
v -384 -336 0
v -384 -288 0
v -336 -288 0
v -384 -336 0
v -432 -336 0
v -432 -288 0
v -384 -288 0
v -432 -336 0
v -480 -336 0
v -480 -288 0
v -432 -288 0
v -480 -336 0
v -528 -336 0
v -528 -288 0
v -480 -288 0
v -528 -336 0
v -576 -336 0
v -576 -288 0
v -528 -288 0
v -576 -336 0
v -624 -336 0
v -624 -288 0
v -576 -288 0
v -624 -336 0
v -672 -336 0
v -672 -288 0
v -624 -288 0
v -672 -336 0
v -720 -336 0
v -720 -288 0
v -672 -288 0
v -720 -336 0
v -768 -336 0
v -768 -288 0
v -720 -288 0
v -768 -336 0
v -816 -336 0
v -816 -288 0
v -768 -288 0
v 0 -384 0
v -48 -384 0
v -48 -336 0
v 0 -336 0
v -48 -384 0
v -96 -384 0
v -96 -336 0
v -48 -336 0
v -96 -384 0
v -144 -384 0
v -144 -336 0
v -96 -336 0
v -144 -384 0
v -192 -384 0
v -192 -336 0
v -144 -336 0
v -192 -384 0
v -240 -384 0
v -240 -336 0
v -192 -336 0
v -240 -384 0
v -288 -384 0
v -288 -336 0
v -240 -336 0
v -288 -384 0
v -336 -384 0
v -336 -336 0
v -288 -336 0
v -336 -384 0
v -384 -384 0
v -384 -336 0
v -336 -336 0
v -384 -384 0
v -432 -384 0
v -432 -336 0
v -384 -336 0
v -432 -384 0
v -480 -384 0
v -480 -336 0
v -432 -336 0
v -480 -384 0
v -528 -384 0
v -528 -336 0
v -480 -336 0
v -528 -384 0
v -576 -384 0
v -576 -336 0
v -528 -336 0
v -576 -384 0
v -624 -384 0
v -624 -336 0
v -576 -336 0
v -624 -384 0
v -672 -384 0
v -672 -336 0
v -624 -336 0
v -672 -384 0
v -720 -384 0
v -720 -336 0
v -672 -336 0
v -720 -384 0
v -768 -384 0
v -768 -336 0
v -720 -336 0
v -768 -384 0
v -816 -384 0
v -816 -336 0
v -768 -336 0
v 0 -432 0
v -48 -432 0
v -48 -384 0
v 0 -384 0
v -48 -432 0
v -96 -432 0
v -96 -384 0
v -48 -384 0
v -96 -432 0
v -144 -432 0
v -144 -384 0
v -96 -384 0
v -144 -432 0
v -192 -432 0
v -192 -384 0
v -144 -384 0
v -192 -432 0
v -240 -432 0
v -240 -384 0
v -192 -384 0
v -240 -432 0
v -288 -432 0
v -288 -384 0
v -240 -384 0
v -288 -432 0
v -336 -432 0
v -336 -384 0
v -288 -384 0
v -336 -432 0
v -384 -432 0
v -384 -384 0
v -336 -384 0
v -384 -432 0
v -432 -432 0
v -432 -384 0
v -384 -384 0
v -432 -432 0
v -480 -432 0
v -480 -384 0
v -432 -384 0
v -480 -432 0
v -528 -432 0
v -528 -384 0
v -480 -384 0
v -528 -432 0
v -576 -432 0
v -576 -384 0
v -528 -384 0
v -576 -432 0
v -624 -432 0
v -624 -384 0
v -576 -384 0
v -624 -432 0
v -672 -432 0
v -672 -384 0
v -624 -384 0
v -672 -432 0
v -720 -432 0
v -720 -384 0
v -672 -384 0
v -720 -432 0
v -768 -432 0
v -768 -384 0
v -720 -384 0
v -768 -432 0
v -816 -432 0
v -816 -384 0
v -768 -384 0
v 0 -480 0
v -48 -480 0
v -48 -432 0
v 0 -432 0
v -48 -480 0
v -96 -480 0
v -96 -432 0
v -48 -432 0
v -96 -480 0
v -144 -480 0
v -144 -432 0
v -96 -432 0
v -144 -480 0
v -192 -480 0
v -192 -432 0
v -144 -432 0
v -192 -480 0
v -240 -480 0
v -240 -432 0
v -192 -432 0
v -240 -480 0
v -288 -480 0
v -288 -432 0
v -240 -432 0
v -288 -480 0
v -336 -480 0
v -336 -432 0
v -288 -432 0
v -336 -480 0
v -384 -480 0
v -384 -432 0
v -336 -432 0
v -384 -480 0
v -432 -480 0
v -432 -432 0
v -384 -432 0
v -432 -480 0
v -480 -480 0
v -480 -432 0
v -432 -432 0
v -480 -480 0
v -528 -480 0
v -528 -432 0
v -480 -432 0
v -528 -480 0
v -576 -480 0
v -576 -432 0
v -528 -432 0
v -576 -480 0
v -624 -480 0
v -624 -432 0
v -576 -432 0
v -624 -480 0
v -672 -480 0
v -672 -432 0
v -624 -432 0
v -672 -480 0
v -720 -480 0
v -720 -432 0
v -672 -432 0
v -720 -480 0
v -768 -480 0
v -768 -432 0
v -720 -432 0
v -768 -480 0
v -816 -480 0
v -816 -432 0
v -768 -432 0
v 0 -528 0
v -48 -528 0
v -48 -480 0
v 0 -480 0
v -48 -528 0
v -96 -528 0
v -96 -480 0
v -48 -480 0
v -96 -528 0
v -144 -528 0
v -144 -480 0
v -96 -480 0
v -144 -528 0
v -192 -528 0
v -192 -480 0
v -144 -480 0
v -192 -528 0
v -240 -528 0
v -240 -480 0
v -192 -480 0
v -240 -528 0
v -288 -528 0
v -288 -480 0
v -240 -480 0
v -288 -528 0
v -336 -528 0
v -336 -480 0
v -288 -480 0
v -336 -528 0
v -384 -528 0
v -384 -480 0
v -336 -480 0
v -384 -528 0
v -432 -528 0
v -432 -480 0
v -384 -480 0
v -432 -528 0
v -480 -528 0
v -480 -480 0
v -432 -480 0
v -480 -528 0
v -528 -528 0
v -528 -480 0
v -480 -480 0
v -528 -528 0
v -576 -528 0
v -576 -480 0
v -528 -480 0
v -576 -528 0
v -624 -528 0
v -624 -480 0
v -576 -480 0
v -624 -528 0
v -672 -528 0
v -672 -480 0
v -624 -480 0
v -672 -528 0
v -720 -528 0
v -720 -480 0
v -672 -480 0
v -720 -528 0
v -768 -528 0
v -768 -480 0
v -720 -480 0
v -768 -528 0
v -816 -528 0
v -816 -480 0
v -768 -480 0
v 0 -576 0
v -48 -576 0
v -48 -528 0
v 0 -528 0
v -48 -576 0
v -96 -576 0
v -96 -528 0
v -48 -528 0
v -96 -576 0
v -144 -576 0
v -144 -528 0
v -96 -528 0
v -144 -576 0
v -192 -576 0
v -192 -528 0
v -144 -528 0
v -192 -576 0
v -240 -576 0
v -240 -528 0
v -192 -528 0
v -240 -576 0
v -288 -576 0
v -288 -528 0
v -240 -528 0
v -288 -576 0
v -336 -576 0
v -336 -528 0
v -288 -528 0
v -336 -576 0
v -384 -576 0
v -384 -528 0
v -336 -528 0
v -384 -576 0
v -432 -576 0
v -432 -528 0
v -384 -528 0
v -432 -576 0
v -480 -576 0
v -480 -528 0
v -432 -528 0
v -480 -576 0
v -528 -576 0
v -528 -528 0
v -480 -528 0
v -528 -576 0
v -576 -576 0
v -576 -528 0
v -528 -528 0
v -576 -576 0
v -624 -576 0
v -624 -528 0
v -576 -528 0
v -624 -576 0
v -672 -576 0
v -672 -528 0
v -624 -528 0
v -672 -576 0
v -720 -576 0
v -720 -528 0
v -672 -528 0
v -720 -576 0
v -768 -576 0
v -768 -528 0
v -720 -528 0
v -768 -576 0
v -816 -576 0
v -816 -528 0
v -768 -528 0
v 0 -624 0
v -48 -624 0
v -48 -576 0
v 0 -576 0
v -48 -624 0
v -96 -624 0
v -96 -576 0
v -48 -576 0
v -96 -624 0
v -144 -624 0
v -144 -576 0
v -96 -576 0
v -144 -624 0
v -192 -624 0
v -192 -576 0
v -144 -576 0
v -192 -624 0
v -240 -624 0
v -240 -576 0
v -192 -576 0
v -240 -624 0
v -288 -624 0
v -288 -576 0
v -240 -576 0
v -288 -624 0
v -336 -624 0
v -336 -576 0
v -288 -576 0
v -336 -624 0
v -384 -624 0
v -384 -576 0
v -336 -576 0
v -384 -624 0
v -432 -624 0
v -432 -576 0
v -384 -576 0
v -432 -624 0
v -480 -624 0
v -480 -576 0
v -432 -576 0
v -480 -624 0
v -528 -624 0
v -528 -576 0
v -480 -576 0
v -528 -624 0
v -576 -624 0
v -576 -576 0
v -528 -576 0
v -576 -624 0
v -624 -624 0
v -624 -576 0
v -576 -576 0
v -624 -624 0
v -672 -624 0
v -672 -576 0
v -624 -576 0
v -672 -624 0
v -720 -624 0
v -720 -576 0
v -672 -576 0
v -720 -624 0
v -768 -624 0
v -768 -576 0
v -720 -576 0
v -768 -624 0
v -816 -624 0
v -816 -576 0
v -768 -576 0

# Texture cooridinates (Count = 24)
vt 0.125 0.9375
vt 0.25 0.9375
vt 0.25 1
vt 0.125 1
vt 0.125 0.875
vt 0.25 0.875
vt 0 0.9375
vt 0 1
vt 0 0.6875
vt 0.125 0.6875
vt 0.125 0.75
vt 0 0.75
vt 0.25 0.6875
vt 0.25 0.75
vt 0.125 0.8125
vt 0.25 0.8125
vt 0 0.625
vt 0.125 0.625
vt 0.25 0.625
vt 0 0.8125
vt 0 0.875
vt 0 0.5625
vt 0.125 0.5625
vt 0.25 0.5625

# Normal
vn 0 0 -1

# Mesh description
g Test-A_mesh_0001

# Faces
f 1/1/1 2/2/1 3/3/1 4/4/1
f 5/1/1 6/2/1 7/3/1 8/4/1
f 9/5/1 10/6/1 11/2/1 12/1/1
f 13/5/1 14/6/1 15/2/1 16/1/1
f 17/5/1 18/6/1 19/2/1 20/1/1
f 21/1/1 22/2/1 23/3/1 24/4/1
f 25/7/1 26/1/1 27/4/1 28/8/1
f 29/9/1 30/10/1 31/11/1 32/12/1
f 33/10/1 34/13/1 35/14/1 36/11/1
f 37/9/1 38/10/1 39/11/1 40/12/1
f 41/1/1 42/2/1 43/3/1 44/4/1
f 45/1/1 46/2/1 47/3/1 48/4/1
f 49/1/1 50/2/1 51/3/1 52/4/1
f 53/1/1 54/2/1 55/3/1 56/4/1
f 57/1/1 58/2/1 59/3/1 60/4/1
f 61/1/1 62/2/1 63/3/1 64/4/1
f 65/1/1 66/2/1 67/3/1 68/4/1
f 69/5/1 70/6/1 71/2/1 72/1/1
f 73/5/1 74/6/1 75/2/1 76/1/1
f 77/15/1 78/16/1 79/6/1 80/5/1
f 81/15/1 82/16/1 83/6/1 84/5/1
f 85/15/1 86/16/1 87/6/1 88/5/1
f 89/5/1 90/6/1 91/2/1 92/1/1
f 93/1/1 94/2/1 95/3/1 96/4/1
f 97/17/1 98/18/1 99/10/1 100/9/1
f 101/18/1 102/19/1 103/13/1 104/10/1
f 105/17/1 106/18/1 107/10/1 108/9/1
f 109/5/1 110/6/1 111/2/1 112/1/1
f 113/5/1 114/6/1 115/2/1 116/1/1
f 117/5/1 118/6/1 119/2/1 120/1/1
f 121/5/1 122/6/1 123/2/1 124/1/1
f 125/5/1 126/6/1 127/2/1 128/1/1
f 129/5/1 130/6/1 131/2/1 132/1/1
f 133/5/1 134/6/1 135/2/1 136/1/1
f 137/15/1 138/16/1 139/6/1 140/5/1
f 141/15/1 142/16/1 143/6/1 144/5/1
f 145/1/1 146/2/1 147/3/1 148/4/1
f 149/20/1 150/15/1 151/5/1 152/21/1
f 153/15/1 154/16/1 155/6/1 156/5/1
f 157/15/1 158/16/1 159/6/1 160/5/1
f 161/5/1 162/6/1 163/2/1 164/1/1
f 165/22/1 166/23/1 167/18/1 168/17/1
f 169/23/1 170/24/1 171/19/1 172/18/1
f 173/22/1 174/23/1 175/18/1 176/17/1
f 177/15/1 178/16/1 179/6/1 180/5/1
f 181/7/1 182/1/1 183/4/1 184/8/1
f 185/1/1 186/2/1 187/3/1 188/4/1
f 189/15/1 190/16/1 191/6/1 192/5/1
f 193/7/1 194/1/1 195/4/1 196/8/1
f 197/1/1 198/2/1 199/3/1 200/4/1
f 201/15/1 202/16/1 203/6/1 204/5/1
f 205/7/1 206/1/1 207/4/1 208/8/1
f 209/7/1 210/1/1 211/4/1 212/8/1
f 213/1/1 214/2/1 215/3/1 216/4/1
f 217/7/1 218/1/1 219/4/1 220/8/1
f 221/7/1 222/1/1 223/4/1 224/8/1
f 225/20/1 226/15/1 227/5/1 228/21/1
f 229/15/1 230/16/1 231/6/1 232/5/1
f 233/9/1 234/10/1 235/11/1 236/12/1
f 237/10/1 238/13/1 239/14/1 240/11/1
f 241/9/1 242/10/1 243/11/1 244/12/1
f 245/7/1 246/1/1 247/4/1 248/8/1
f 249/21/1 250/5/1 251/1/1 252/7/1
f 253/5/1 254/6/1 255/2/1 256/1/1
f 257/7/1 258/1/1 259/4/1 260/8/1
f 261/7/1 262/1/1 263/4/1 264/8/1
f 265/1/1 266/2/1 267/3/1 268/4/1
f 269/15/1 270/16/1 271/6/1 272/5/1
f 273/21/1 274/5/1 275/1/1 276/7/1
f 277/7/1 278/1/1 279/4/1 280/8/1
f 281/7/1 282/1/1 283/4/1 284/8/1
f 285/7/1 286/1/1 287/4/1 288/8/1
f 289/7/1 290/1/1 291/4/1 292/8/1
f 293/7/1 294/1/1 295/4/1 296/8/1
f 297/7/1 298/1/1 299/4/1 300/8/1
f 301/17/1 302/18/1 303/10/1 304/9/1
f 305/18/1 306/19/1 307/13/1 308/10/1
f 309/17/1 310/18/1 311/10/1 312/9/1
f 313/21/1 314/5/1 315/1/1 316/7/1
f 317/20/1 318/15/1 319/5/1 320/21/1
f 321/15/1 322/16/1 323/6/1 324/5/1
f 325/21/1 326/5/1 327/1/1 328/7/1
f 329/7/1 330/1/1 331/4/1 332/8/1
f 333/1/1 334/2/1 335/3/1 336/4/1
f 337/7/1 338/1/1 339/4/1 340/8/1
f 341/20/1 342/15/1 343/5/1 344/21/1
f 345/21/1 346/5/1 347/1/1 348/7/1
f 349/21/1 350/5/1 351/1/1 352/7/1
f 353/21/1 354/5/1 355/1/1 356/7/1
f 357/21/1 358/5/1 359/1/1 360/7/1
f 361/21/1 362/5/1 363/1/1 364/7/1
f 365/21/1 366/5/1 367/1/1 368/7/1
f 369/22/1 370/23/1 371/18/1 372/17/1
f 373/23/1 374/24/1 375/19/1 376/18/1
f 377/22/1 378/23/1 379/18/1 380/17/1
f 381/20/1 382/15/1 383/5/1 384/21/1
f 385/20/1 386/15/1 387/5/1 388/21/1
f 389/15/1 390/16/1 391/6/1 392/5/1
f 393/20/1 394/15/1 395/5/1 396/21/1
f 397/7/1 398/1/1 399/4/1 400/8/1
f 401/7/1 402/1/1 403/4/1 404/8/1
f 405/7/1 406/1/1 407/4/1 408/8/1
f 409/7/1 410/1/1 411/4/1 412/8/1
f 413/20/1 414/15/1 415/5/1 416/21/1
f 417/20/1 418/15/1 419/5/1 420/21/1
f 421/20/1 422/15/1 423/5/1 424/21/1
f 425/20/1 426/15/1 427/5/1 428/21/1
f 429/20/1 430/15/1 431/5/1 432/21/1
f 433/20/1 434/15/1 435/5/1 436/21/1
f 437/9/1 438/10/1 439/11/1 440/12/1
f 441/10/1 442/13/1 443/14/1 444/11/1
f 445/9/1 446/10/1 447/11/1 448/12/1
f 449/15/1 450/16/1 451/6/1 452/5/1
f 453/5/1 454/6/1 455/2/1 456/1/1
f 457/1/1 458/2/1 459/3/1 460/4/1
f 461/1/1 462/2/1 463/3/1 464/4/1
f 465/7/1 466/1/1 467/4/1 468/8/1
f 469/21/1 470/5/1 471/1/1 472/7/1
f 473/7/1 474/1/1 475/4/1 476/8/1
f 477/21/1 478/5/1 479/1/1 480/7/1
f 481/20/1 482/15/1 483/5/1 484/21/1
f 485/21/1 486/5/1 487/1/1 488/7/1
f 489/7/1 490/1/1 491/4/1 492/8/1
f 493/7/1 494/1/1 495/4/1 496/8/1
f 497/21/1 498/5/1 499/1/1 500/7/1
f 501/21/1 502/5/1 503/1/1 504/7/1
f 505/17/1 506/18/1 507/10/1 508/9/1
f 509/18/1 510/19/1 511/13/1 512/10/1
f 513/17/1 514/18/1 515/10/1 516/9/1
f 517/15/1 518/16/1 519/6/1 520/5/1
f 521/15/1 522/16/1 523/6/1 524/5/1
f 525/5/1 526/6/1 527/2/1 528/1/1
f 529/1/1 530/2/1 531/3/1 532/4/1
f 533/7/1 534/1/1 535/4/1 536/8/1
f 537/20/1 538/15/1 539/5/1 540/21/1
f 541/7/1 542/1/1 543/4/1 544/8/1
f 545/20/1 546/15/1 547/5/1 548/21/1
f 549/20/1 550/15/1 551/5/1 552/21/1
f 553/20/1 554/15/1 555/5/1 556/21/1
f 557/7/1 558/1/1 559/4/1 560/8/1
f 561/21/1 562/5/1 563/1/1 564/7/1
f 565/20/1 566/15/1 567/5/1 568/21/1
f 569/20/1 570/15/1 571/5/1 572/21/1
f 573/22/1 574/23/1 575/18/1 576/17/1
f 577/23/1 578/24/1 579/19/1 580/18/1
f 581/22/1 582/23/1 583/18/1 584/17/1
f 585/20/1 586/15/1 587/5/1 588/21/1
f 589/15/1 590/16/1 591/6/1 592/5/1
f 593/15/1 594/16/1 595/6/1 596/5/1
f 597/5/1 598/6/1 599/2/1 600/1/1
f 601/21/1 602/5/1 603/1/1 604/7/1
f 605/20/1 606/15/1 607/5/1 608/21/1
f 609/7/1 610/1/1 611/4/1 612/8/1
f 613/20/1 614/15/1 615/5/1 616/21/1
f 617/15/1 618/16/1 619/6/1 620/5/1
f 621/20/1 622/15/1 623/5/1 624/21/1
f 625/21/1 626/5/1 627/1/1 628/7/1
f 629/7/1 630/1/1 631/4/1 632/8/1
f 633/7/1 634/1/1 635/4/1 636/8/1
f 637/7/1 638/1/1 639/4/1 640/8/1
f 641/9/1 642/10/1 643/11/1 644/12/1
f 645/10/1 646/13/1 647/14/1 648/11/1
f 649/9/1 650/10/1 651/11/1 652/12/1
f 653/7/1 654/1/1 655/4/1 656/8/1
f 657/20/1 658/15/1 659/5/1 660/21/1
f 661/15/1 662/16/1 663/6/1 664/5/1
f 665/15/1 666/16/1 667/6/1 668/5/1
f 669/1/1 670/2/1 671/3/1 672/4/1
f 673/20/1 674/15/1 675/5/1 676/21/1
f 677/7/1 678/1/1 679/4/1 680/8/1
f 681/7/1 682/1/1 683/4/1 684/8/1
f 685/7/1 686/1/1 687/4/1 688/8/1
f 689/7/1 690/1/1 691/4/1 692/8/1
f 693/7/1 694/1/1 695/4/1 696/8/1
f 697/21/1 698/5/1 699/1/1 700/7/1
f 701/21/1 702/5/1 703/1/1 704/7/1
f 705/21/1 706/5/1 707/1/1 708/7/1
f 709/17/1 710/18/1 711/10/1 712/9/1
f 713/18/1 714/19/1 715/13/1 716/10/1
f 717/17/1 718/18/1 719/10/1 720/9/1
f 721/21/1 722/5/1 723/1/1 724/7/1
f 725/21/1 726/5/1 727/1/1 728/7/1
f 729/20/1 730/15/1 731/5/1 732/21/1
f 733/15/1 734/16/1 735/6/1 736/5/1
f 737/5/1 738/6/1 739/2/1 740/1/1
f 741/7/1 742/1/1 743/4/1 744/8/1
f 745/1/1 746/2/1 747/3/1 748/4/1
f 749/21/1 750/5/1 751/1/1 752/7/1
f 753/21/1 754/5/1 755/1/1 756/7/1
f 757/21/1 758/5/1 759/1/1 760/7/1
f 761/21/1 762/5/1 763/1/1 764/7/1
f 765/20/1 766/15/1 767/5/1 768/21/1
f 769/20/1 770/15/1 771/5/1 772/21/1
f 773/20/1 774/15/1 775/5/1 776/21/1
f 777/22/1 778/23/1 779/18/1 780/17/1
f 781/23/1 782/24/1 783/19/1 784/18/1
f 785/22/1 786/23/1 787/18/1 788/17/1
f 789/20/1 790/15/1 791/5/1 792/21/1
f 793/20/1 794/15/1 795/5/1 796/21/1
f 797/20/1 798/15/1 799/5/1 800/21/1
f 801/15/1 802/16/1 803/6/1 804/5/1
f 805/15/1 806/16/1 807/6/1 808/5/1
f 809/1/1 810/2/1 811/3/1 812/4/1
f 813/1/1 814/2/1 815/3/1 816/4/1
f 817/20/1 818/15/1 819/5/1 820/21/1
f 821/20/1 822/15/1 823/5/1 824/21/1
f 825/20/1 826/15/1 827/5/1 828/21/1
f 829/20/1 830/15/1 831/5/1 832/21/1
f 833/20/1 834/15/1 835/5/1 836/21/1
f 837/15/1 838/16/1 839/6/1 840/5/1
f 841/15/1 842/16/1 843/6/1 844/5/1
f 845/9/1 846/10/1 847/11/1 848/12/1
f 849/10/1 850/13/1 851/14/1 852/11/1
f 853/9/1 854/10/1 855/11/1 856/12/1
f 857/5/1 858/6/1 859/2/1 860/1/1
f 861/5/1 862/6/1 863/2/1 864/1/1
f 865/5/1 866/6/1 867/2/1 868/1/1
f 869/5/1 870/6/1 871/2/1 872/1/1
f 873/5/1 874/6/1 875/2/1 876/1/1
f 877/5/1 878/6/1 879/2/1 880/1/1
f 881/5/1 882/6/1 883/2/1 884/1/1

